<svg width="20" height="20" viewBox="0 0 20 20" fill="none" xmlns="http://www.w3.org/2000/svg">
<path d="M7.66667 4.55556H6.11111C5.252 4.55556 4.55556 5.252 4.55556 6.11111V15.4444C4.55556 16.3036 5.252 17 6.11111 17H13.8889C14.748 17 15.4444 16.3036 15.4444 15.4444V6.11111C15.4444 5.252 14.748 4.55556 13.8889 4.55556H12.3333M7.66667 4.55556C7.66667 5.41467 8.36311 6.11111 9.22222 6.11111H10.7778C11.6369 6.11111 12.3333 5.41467 12.3333 4.55556M7.66667 4.55556C7.66667 3.69645 8.36311 3 9.22222 3H10.7778C11.6369 3 12.3333 3.69645 12.3333 4.55556M10 10H12.3333M10 13.1111H12.3333M7.66667 10H7.67445M7.66667 13.1111H7.67445" stroke="#4143E7" stroke-width="1.5" stroke-linecap="round"/>
</svg>
