<svg width="20" height="20" viewBox="0 0 20 20" fill="none" xmlns="http://www.w3.org/2000/svg">
<path d="M6.88888 6.11111V12.3333C6.88888 13.1924 7.58533 13.8889 8.44444 13.8889H13.1111M6.88888 6.11111V4.55556C6.88888 3.69645 7.58533 3 8.44444 3H12.0112C12.2174 3 12.4153 3.08194 12.5611 3.22781L15.9944 6.66108C16.1403 6.80694 16.2222 7.00478 16.2222 7.21106V12.3333C16.2222 13.1924 15.5258 13.8889 14.6667 13.8889H13.1111M6.88888 6.11111H5.77777C4.6732 6.11111 3.77777 7.00654 3.77777 8.11111V15.4444C3.77777 16.3036 4.47422 17 5.33333 17H11.1111C12.2157 17 13.1111 16.1046 13.1111 15V13.8889" stroke="#4143E7" stroke-width="1.5" stroke-linecap="round" stroke-linejoin="round"/>
</svg>
