<svg width="20" height="20" viewBox="0 0 20 20" fill="none" xmlns="http://www.w3.org/2000/svg">
<rect width="20" height="20" fill="#1E1E1E"/>
<g clip-path="url(#clip0_466_37077)">
<rect x="-771" y="-322" width="1328" height="1366" rx="8" fill="white"/>
<rect x="-25.5" y="-25.5" width="455" height="478" rx="4.5" stroke="#9747FF" stroke-dasharray="10 5"/>
<rect x="-6" y="-6" width="32" height="32" rx="4" fill="#F7F7FF"/>
<path d="M3 10L4.55556 8.44444M4.55556 8.44444L10 3L15.4444 8.44444M4.55556 8.44444V16.2222C4.55556 16.6518 4.90378 17 5.33333 17H7.66667M15.4444 8.44444L17 10M15.4444 8.44444V16.2222C15.4444 16.6518 15.0962 17 14.6667 17H12.3333M7.66667 17C8.09622 17 8.44444 16.6518 8.44444 16.2222V13.1111C8.44444 12.6816 8.79267 12.3333 9.22222 12.3333H10.7778C11.2073 12.3333 11.5556 12.6816 11.5556 13.1111V16.2222C11.5556 16.6518 11.9038 17 12.3333 17M7.66667 17H12.3333" stroke="#4143E7" stroke-width="1.5" stroke-linecap="round" stroke-linejoin="round"/>
</g>
<defs>
<clipPath id="clip0_466_37077">
<rect x="-771" y="-322" width="1328" height="1366" rx="8" fill="white"/>
</clipPath>
</defs>
</svg>
